<?xml version="1.0" encoding="UTF-8"?>
<svg version="1.1" xmlns="http://www.w3.org/2000/svg" width="234" height="230">
<path d="M0 0 C77.22 0 154.44 0 234 0 C234 75.9 234 151.8 234 230 C156.78 230 79.56 230 0 230 C0 154.1 0 78.2 0 0 Z " fill="#6EA317" transform="translate(0,0)"/>
<path d="M0 0 C77.22 0 154.44 0 234 0 C234 75.9 234 151.8 234 230 C156.78 230 79.56 230 0 230 C0 154.1 0 78.2 0 0 Z M45 10 C43.17275391 10.75990234 43.17275391 10.75990234 41.30859375 11.53515625 C25.12820253 20.1426841 14.42556498 32.74483112 8 50 C6.09353664 56.36782833 5.71364752 62.1136884 5.74121094 68.73950195 C5.7377063 69.78614014 5.73420166 70.83277832 5.73059082 71.91113281 C5.72182534 75.35358413 5.72760571 78.79582802 5.734375 82.23828125 C5.73302656 84.64430277 5.73108453 87.05032402 5.72857666 89.4563446 C5.72563215 94.49395344 5.72990032 99.53149123 5.73925781 104.5690918 C5.75063341 111.00463447 5.74410048 117.44000996 5.73211288 123.87554646 C5.72486041 128.84371686 5.72719807 133.81184813 5.73236847 138.78001976 C5.73369656 141.15172534 5.73208691 143.52343454 5.72740936 145.89513588 C5.72229041 149.22095673 5.73013024 152.54651312 5.74121094 155.87231445 C5.73716248 156.83942856 5.73311401 157.80654266 5.72894287 158.80296326 C5.78858092 168.53919392 7.08864003 177.47348379 11.6875 186.125 C12.04271729 186.80949219 12.39793457 187.49398437 12.76391602 188.19921875 C19.08805409 200.08358074 27.55709181 208.85182423 39.375 215.3125 C40.25671875 215.80085327 40.25671875 215.80085327 41.15625 216.29907227 C50.06015043 220.93290681 59.13283401 222.45131908 69.08007812 222.37231445 C70.65069252 222.37779045 70.65069252 222.37779045 72.2530365 222.38337708 C75.67927795 222.39141573 79.10503641 222.37792797 82.53125 222.36328125 C84.9329834 222.36276184 87.33471722 222.36328266 89.7364502 222.36479187 C94.75616856 222.36470245 99.77572534 222.35433364 104.79541016 222.33618164 C111.20733665 222.3134959 117.61902739 222.31295375 124.03098297 222.31969929 C128.98628814 222.32305183 133.94154025 222.31638498 138.89683533 222.30657005 C141.26016461 222.30273994 143.62349982 222.30156069 145.98683167 222.3031559 C149.29797472 222.30352964 152.60882337 222.29082016 155.91992188 222.2746582 C156.88232285 222.27713562 157.84472382 222.27961304 158.83628845 222.28216553 C168.55785698 222.20700413 177.48635062 220.90452039 186.125 216.3125 C186.80949219 215.95728271 187.49398437 215.60206543 188.19921875 215.23608398 C193.61039859 212.35658162 198.50453519 209.19697318 203 205 C203.67160156 204.38125 204.34320313 203.7625 205.03515625 203.125 C217.46445093 190.48016842 222.12940445 173.64060388 222.17700195 156.40576172 C222.18685875 154.84084236 222.18685875 154.84084236 222.19691467 153.24430847 C222.21655643 149.80610062 222.22829025 146.36793628 222.23828125 142.9296875 C222.24235678 141.74978367 222.2464323 140.56987984 222.25063133 139.35422134 C222.27145372 133.10821968 222.28577171 126.86223974 222.29516602 120.61621094 C222.30621926 114.19082682 222.34061826 107.76579004 222.38033772 101.34052849 C222.40657675 96.37657053 222.41486436 91.41269445 222.41844749 86.44867325 C222.42329495 84.08138815 222.43485583 81.71410625 222.45348549 79.3468895 C222.70466679 61.77163279 222.70466679 61.77163279 218 45 C217.49339844 43.78183594 216.98679688 42.56367187 216.46484375 41.30859375 C209.90739575 28.98193319 201.43950021 19.60848449 189 13 C188.0925 12.51789062 187.185 12.03578125 186.25 11.5390625 C176.51305099 6.75357336 166.70086724 5.69931609 155.95166016 5.70947266 C154.90779648 5.70275543 153.8639328 5.69603821 152.78843689 5.68911743 C149.37192902 5.67027475 145.95561894 5.66622051 142.5390625 5.6640625 C140.14211957 5.65762617 137.74517741 5.6508972 135.34823608 5.64389038 C130.33695658 5.63195275 125.32574583 5.62820605 120.31445312 5.62939453 C113.92054556 5.62959777 107.52708217 5.60227359 101.1332798 5.56785011 C96.18647265 5.54552259 91.23977152 5.54155876 86.29291916 5.54261398 C83.93680666 5.5402677 81.5806908 5.53149959 79.22462845 5.51594925 C61.71281361 5.3036328 61.71281361 5.3036328 45 10 Z " fill="#09090B" transform="translate(0,0)"/>
<path d="M0 0 C3.75538876 0.40321016 5.00989896 1.95939204 7.3125 4.8125 C11.48699127 9.19727348 15.47880731 10.25471997 21.28491211 11.57275391 C32.54707397 14.18325377 42.19018251 20.46446083 48.48242188 30.32250977 C53.12318434 38.51029001 54.67178116 46.29155701 54.5 55.625 C54.49154053 56.65955322 54.48308105 57.69410645 54.47436523 58.76000977 C53.96638585 81.03361415 53.96638585 81.03361415 49 86 C47.09841813 85.90544513 45.20004182 85.74692285 43.3046875 85.56640625 C33.24840299 84.77154895 23.20640645 84.89211911 13.125 84.9375 C11.16536573 84.94252803 9.20573021 84.94708862 7.24609375 84.95117188 C2.49736415 84.96206734 -2.25130362 84.97925915 -7 85 C-3.78763178 74.70559945 4.74958389 68.10514134 12.71484375 61.2265625 C15.39223729 58.61782008 16.80075081 56.72907776 17.23046875 53 C17.21628906 52.34 17.20210937 51.68 17.1875 51 C17.17783203 50.01 17.17783203 50.01 17.16796875 49 C16.9925663 46.91148705 16.56248041 45.0159298 16 43 C15.50371094 43.44730469 15.00742188 43.89460938 14.49609375 44.35546875 C12.35220117 46.2634111 10.18470966 48.13895103 8 50 C7.40316406 50.50917969 6.80632812 51.01835938 6.19140625 51.54296875 C3.06202192 54.00744925 0.88541553 55.21461462 -3.125 55.5 C-7.81785891 56.10553018 -9.07671842 57.38888746 -12 61 C-12.66 61.99 -13.32 62.98 -14 64 C-19.92478912 63.66043699 -24.87221522 63.28704152 -30 60 C-31.46075889 57.07848222 -31.36724448 55.25929479 -31 52 C-29.60202859 49.38181648 -27.80457843 47.09992939 -26 44.75 C-21.72101329 38.91920225 -18.53638152 33.19548547 -15.8125 26.5 C-13.28438008 20.31489204 -10.86892689 16.1448319 -5.6953125 11.7421875 C-3.14887532 9.12534191 -2.37341412 6.26291675 -1.47265625 2.78515625 C-1 1 -1 1 0 0 Z " fill="#F6F6F6" transform="translate(98,61)"/>
<path d="M0 0 C2.45703125 1.8984375 2.45703125 1.8984375 4.8125 4.375 C5.60269531 5.18710937 6.39289063 5.99921875 7.20703125 6.8359375 C9 9 9 9 9 11 C9.87398437 11.02126953 9.87398437 11.02126953 10.765625 11.04296875 C23.79841351 11.80116557 34.19081937 17.7595277 43.03515625 27.1640625 C51.34806464 37.15367216 54.39760383 49.38708555 54.375 62.1875 C54.37584595 63.41762817 54.37584595 63.41762817 54.37670898 64.67260742 C54.2598712 71.22893124 53.08812601 76.79443923 50.97265625 83.01953125 C49.9966716 86.01019908 49.44166237 88.88976712 49 92 C49.7425 92.226875 50.485 92.45375 51.25 92.6875 C54.6018353 94.28723957 55.98266141 95.90194431 58 99 C59 104 59 104 59 116 C30.95 116 2.9 116 -26 116 C-26 98.25626741 -26 98.25626741 -22.59765625 94.41796875 C-18.33333333 91 -18.33333333 91 -15 91 C-14.95875 90.195625 -14.9175 89.39125 -14.875 88.5625 C-12.35727342 78.31175605 -3.5884063 70.90770749 4.3125 64.5 C8.31116056 61.09838895 9.59323124 58.01161372 11 53 C9.87851563 53.83144531 9.87851563 53.83144531 8.734375 54.6796875 C7.74953125 55.40414062 6.7646875 56.12859375 5.75 56.875 C4.77546875 57.59429687 3.8009375 58.31359375 2.796875 59.0546875 C-0.85429943 61.5941915 -2.9025152 62.95935241 -7.375 63.125 C-11.55666115 64.13436648 -11.70016023 64.62504492 -13.875 68.0625 C-16.40480927 71.81011639 -16.40480927 71.81011639 -19.09375 72.66796875 C-26.00980015 72.91666233 -31.44181726 70.30236447 -36.5 65.75 C-38.48257769 62.11527424 -38.72112434 59.01008998 -38 55 C-36.48547232 51.93099306 -34.48972845 49.29233101 -32.4375 46.5625 C-28.1063833 40.5071743 -24.762399 34.73912114 -22.1875 27.75 C-20.16519923 22.27551357 -18.42019013 18.68772768 -13.49609375 15.38671875 C-10.87668561 12.95880781 -10.50533129 9.65099985 -9.66796875 6.28125 C-8.13220232 1.03629329 -5.25413644 -0.70773141 0 0 Z M-4 4 C-6.5772499 6.5772499 -6.88304615 8.93682987 -7.73046875 12.41796875 C-9.03358428 15.06830525 -10.20004753 16.22841262 -12.34375 18.203125 C-16.45787114 22.14323818 -18.24859868 26.32819322 -20.3125 31.5625 C-23.39286563 38.94858509 -26.82281474 45.30897043 -31.90161133 51.51000977 C-34.02568634 54.1833781 -34.97811204 55.80876831 -35.37109375 59.2421875 C-35.19715365 62.06078162 -35.19715365 62.06078162 -33.5 64.25 C-30.14320604 66.59975577 -26.99983394 67.32936916 -23 68 C-22.0925 68.165 -21.185 68.33 -20.25 68.5 C-17.64667494 68.17966485 -17.64667494 68.17966485 -15.875 65.125 C-15.25625 64.09375 -14.6375 63.0625 -14 62 C-10.92832567 59.95221711 -9.93632667 59.79131393 -6.4375 59.4375 C-0.52421925 58.38836954 2.69160353 55.22627965 6.87109375 51.09375 C9 49 9 49 12 47 C13.27898095 50.83694285 13.76987462 55.03055473 13 59 C10.25514119 63.89444704 6.78895305 67.2431739 2.625 70.875 C-6.18573181 78.61341955 -6.18573181 78.61341955 -11 89 C-9.20151611 88.99214478 -9.20151611 88.99214478 -7.36669922 88.98413086 C-2.85270963 88.96581986 1.66127678 88.95447413 6.17529297 88.94506836 C8.11670486 88.94008708 10.0581131 88.93329964 11.99951172 88.92456055 C23.05163278 88.87611133 33.98672108 88.96010449 45 90 C45.21092285 89.39599365 45.4218457 88.7919873 45.63916016 88.16967773 C46.1422526 86.72900391 46.64534505 85.28833008 47.1484375 83.84765625 C49.53556483 75.86501487 50.36445969 68.46238708 50.375 60.125 C50.41173828 58.60712891 50.41173828 58.60712891 50.44921875 57.05859375 C50.49618082 44.83280064 46.34698298 35.64449781 38 26.90625 C30.93280381 20.14193365 23.43174762 16.60791917 13.875 14.75 C7.81398978 13.41799645 4.81308959 10.50243422 0.83984375 5.86328125 C0.23269531 5.24839844 -0.37445313 4.63351563 -1 4 C-1.99 4 -2.98 4 -4 4 Z " fill="#52564D" transform="translate(102,57)"/>
<path d="M0 0 C2.64345929 0.01078563 5.28624778 0.00000414 7.9296875 -0.01269531 C31.47549991 -0.03477633 31.47549991 -0.03477633 36.5078125 4.76074219 C40.88040682 10.59086795 39.3828125 10.48996958 39.3828125 20.26074219 C13.6428125 20.26074219 -12.0971875 20.26074219 -38.6171875 20.26074219 C-38.6171875 9.26074219 -38.6171875 9.26074219 -36.5546875 5.19824219 C-28.73831928 -2.41970099 -10.19187329 -0.04943819 0 0 Z " fill="#F5F5F5" transform="translate(117.6171875,148.7392578125)"/>
<path d="M0 0 C12.47439015 4.34558673 21.75960173 11.33461081 27.875 23.25 C34.91406557 37.88752709 31.89773876 58.03140885 27 73 C26.67 73.33 26.34 73.66 26 74 C23.96325159 73.92122548 21.9291339 73.77321709 19.8984375 73.59765625 C12.14429873 72.98476251 4.39987129 72.67898022 -3.375 72.4375 C-4.7083414 72.39412742 -6.04167481 72.35050859 -7.375 72.30664062 C-10.58326388 72.20202332 -13.79158457 72.09984162 -17 72 C-17 71.67 -17 71.34 -17 71 C-9.74 71 -2.48 71 5 71 C5.66 69.35 6.32 67.7 7 66 C8.04796215 64.29030918 9.13417699 62.60369518 10.25 60.9375 C17.98122823 49.01717531 23.34654439 38.13044133 20.5390625 23.6171875 C19.84864927 21.61092789 19.02736722 19.85626576 18 18 C17.5978125 17.25105469 17.195625 16.50210938 16.78125 15.73046875 C12.77944595 9.02744696 7.4554992 4.4851664 0 2 C0 1.34 0 0.68 0 0 Z " fill="#D0D0D0" transform="translate(121,73)"/>
<path d="M0 0 C0.33 0 0.66 0 1 0 C1 6.6 1 13.2 1 20 C1.66 20 2.32 20 3 20 C3.42292134 24.3701872 2.16915074 27.72628706 0.734375 31.7734375 C-0.15931763 34.4830375 -0.63763342 37.17354065 -1 40 C-0.2575 40.226875 0.485 40.45375 1.25 40.6875 C4.6018353 42.28723957 5.98266141 43.90194431 8 47 C9 52 9 52 9 64 C-19.05 64 -47.1 64 -76 64 C-76 46.46666667 -76 46.46666667 -72.125 41.6875 C-70 40 -70 40 -66 40 C-67.11199337 42.50198509 -68.1039938 44.1039938 -70.0625 46.0625 C-72.96048825 49.95264917 -72.96048825 49.95264917 -73 60 C-47.26 60 -21.52 60 5 60 C4.38426752 50.10156688 4.38426752 50.10156688 3 45 C1.12756193 43.89259668 1.12756193 43.89259668 -1.1875 43.3125 C-1.94417969 43.08175781 -2.70085937 42.85101563 -3.48046875 42.61328125 C-10.07580942 41.00790375 -16.33229611 40.86813534 -23.0859375 40.90234375 C-24.14285797 40.9037587 -25.19977844 40.90517365 -26.28872681 40.90663147 C-29.65084716 40.9122106 -33.01289991 40.92475931 -36.375 40.9375 C-38.66015529 40.94251769 -40.94531162 40.94708013 -43.23046875 40.95117188 C-48.8203354 40.96217321 -54.41016287 40.97889056 -60 41 C-60 40.67 -60 40.34 -60 40 C-50.595 39.01 -50.595 39.01 -41 38 C-43.64 37.67 -46.28 37.34 -49 37 C-49 36.67 -49 36.34 -49 36 C-44.98389666 35.97482674 -40.96782537 35.95692245 -36.95166016 35.94506836 C-34.93260071 35.93770992 -32.91356303 35.92498838 -30.89453125 35.91210938 C-22.20450174 35.89070536 -13.65625944 36.25150106 -5 37 C-1.55113315 24.61616182 -0.26556665 12.84014774 0 0 Z " fill="#565D49" transform="translate(152,109)"/>
<path d="M0 0 C0.33 0 0.66 0 1 0 C1 6.6 1 13.2 1 20 C1.66 20 2.32 20 3 20 C3.42292134 24.3701872 2.16915074 27.72628706 0.734375 31.7734375 C-0.15931763 34.4830375 -0.63763342 37.17354065 -1 40 C-0.236875 40.268125 0.52625 40.53625 1.3125 40.8125 C3.88988618 41.95134505 5.26954864 42.81416671 7 45 C7 45.66 7 46.32 7 47 C6.34 47 5.68 47 5 47 C4.505 47.99 4.505 47.99 4 49 C3.92136719 48.37480469 3.84273437 47.74960938 3.76171875 47.10546875 C3.20780199 44.84742596 3.20780199 44.84742596 1.14453125 43.98828125 C0.37496094 43.76527344 -0.39460938 43.54226562 -1.1875 43.3125 C-2.32251953 42.96638672 -2.32251953 42.96638672 -3.48046875 42.61328125 C-10.07580942 41.00790375 -16.33229611 40.86813534 -23.0859375 40.90234375 C-24.14285797 40.9037587 -25.19977844 40.90517365 -26.28872681 40.90663147 C-29.65084716 40.9122106 -33.01289991 40.92475931 -36.375 40.9375 C-38.66015529 40.94251769 -40.94531162 40.94708013 -43.23046875 40.95117188 C-48.8203354 40.96217321 -54.41016287 40.97889056 -60 41 C-60 40.67 -60 40.34 -60 40 C-50.595 39.01 -50.595 39.01 -41 38 C-43.64 37.67 -46.28 37.34 -49 37 C-49 36.67 -49 36.34 -49 36 C-44.98389666 35.97482674 -40.96782537 35.95692245 -36.95166016 35.94506836 C-34.93260071 35.93770992 -32.91356303 35.92498838 -30.89453125 35.91210938 C-22.20450174 35.89070536 -13.65625944 36.25150106 -5 37 C-1.55113315 24.61616182 -0.26556665 12.84014774 0 0 Z " fill="#4A4D45" transform="translate(152,109)"/>
<path d="M0 0 C4.10765642 -0.02496472 8.21528264 -0.04298366 12.32299805 -0.05493164 C13.71656057 -0.05991957 15.11011798 -0.06671231 16.50366211 -0.07543945 C24.06930078 -0.12158795 31.49454426 -0.05558458 39 1 C38.67 1.99 38.34 2.98 38 4 C39.65 4 41.3 4 43 4 C43 4.33 43 4.66 43 5 C25.18 5 7.36 5 -11 5 C-11 4.67 -11 4.34 -11 4 C-4.73 3.34 1.54 2.68 8 2 C5.36 1.67 2.72 1.34 0 1 C0 0.67 0 0.34 0 0 Z " fill="#777777" transform="translate(103,145)"/>
<path d="M0 0 C0.66 0 1.32 0 2 0 C2 0.99 2 1.98 2 3 C2.66 3 3.32 3 4 3 C5.66957232 9.51396129 6.26029841 15.35482129 6.125 22.0625 C6.11597656 22.92810547 6.10695312 23.79371094 6.09765625 24.68554688 C6.07439723 26.79048779 6.03854008 28.89528342 6 31 C5.01 31 4.02 31 3 31 C2.92652344 29.02580078 2.92652344 29.02580078 2.8515625 27.01171875 C2.29305681 13.4062703 2.29305681 13.4062703 0 0 Z " fill="#4F5645" transform="translate(150,98)"/>
<path d="M0 0 C0.33 0 0.66 0 1 0 C1 6.6 1 13.2 1 20 C1.66 20 2.32 20 3 20 C3.64366639 25.14933111 1.37721719 28.63598451 -1 33 C-1.67129225 34.33101049 -2.3392923 35.66370379 -3 37 C-4.27709203 33.39008652 -3.66629367 31.13019811 -2.625 27.5 C-0.35957074 18.44862738 -0.26860526 9.29003717 0 0 Z " fill="#4C4E48" transform="translate(152,109)"/>
<path d="M0 0 C0.66 0 1.32 0 2 0 C2.38614349 6.8218683 1.00865708 12.49577707 -1 19 C-1.33 19 -1.66 19 -2 19 C-2.12117188 18.28972656 -2.24234375 17.57945313 -2.3671875 16.84765625 C-2.53476563 15.92855469 -2.70234375 15.00945312 -2.875 14.0625 C-3.03742188 13.14597656 -3.19984375 12.22945312 -3.3671875 11.28515625 C-3.57601562 10.53105469 -3.78484375 9.77695313 -4 9 C-4.66 8.67 -5.32 8.34 -6 8 C-5.34 8 -4.68 8 -4 8 C-3.71125 7.05125 -3.4225 6.1025 -3.125 5.125 C-2 2 -2 2 0 0 Z " fill="#D4D4D4" transform="translate(118,95)"/>
<path d="M0 0 C1 1 1 1 1.1875 3.4375 C1 6 1 6 -1 8 C-3.68839385 8.26991906 -6.29141936 8.08737357 -9 8 C-8.64005447 5.3364031 -8.28838998 3.41816548 -6.75 1.1875 C-4.3961523 -0.40975379 -2.78481156 -0.29313806 0 0 Z " fill="#555555" transform="translate(103,82)"/>
<path d="M0 0 C3.8063457 0.67170806 7.35206816 1.72746564 11 3 C11 3.33 11 3.66 11 4 C9.1746875 4.0928125 9.1746875 4.0928125 7.3125 4.1875 C2.79820176 4.73782964 0.92519422 6.48976694 -2 10 C-3 11 -4 12 -5 13 C-4.39254603 8.14036821 -2.27241033 4.2594482 0 0 Z " fill="#CFCFCF" transform="translate(88,112)"/>
<path d="M0 0 C1 3 1 3 0.125 5.1875 C-2.81784194 7.69757106 -5.0818373 7.4398636 -8.84375 7.43359375 C-11.43264246 6.91300124 -12.34185201 6.00359549 -14 4 C-11.09849938 3.38453017 -8.26234289 2.91248136 -5.3125 2.5625 C-1.93121899 2.31705032 -1.93121899 2.31705032 0 0 Z " fill="#484946" transform="translate(87,122)"/>
<path d="M0 0 C0.66 0 1.32 0 2 0 C2 0.99 2 1.98 2 3 C2.66 3 3.32 3 4 3 C5.32594359 8.96674616 5.0884587 14.92583615 5 21 C4.67 21 4.34 21 4 21 C3.32944715 18.06333774 2.66340947 15.12577641 2 12.1875 C1.80921875 11.35412109 1.6184375 10.52074219 1.421875 9.66210938 C1.24140625 8.85966797 1.0609375 8.05722656 0.875 7.23046875 C0.70742187 6.49207764 0.53984375 5.75368652 0.3671875 4.99291992 C0 3 0 3 0 0 Z " fill="#4A4B48" transform="translate(150,98)"/>
<path d="M0 0 C1.8125 1.5 1.8125 1.5 3 3 C3 3.66 3 4.32 3 5 C2.34 5 1.68 5 1 5 C0.67 5.66 0.34 6.32 0 7 C-0.07089844 6.37609375 -0.14179688 5.7521875 -0.21484375 5.109375 C-0.80004532 2.80770679 -0.80004532 2.80770679 -3.06640625 1.953125 C-3.89011719 1.72109375 -4.71382812 1.4890625 -5.5625 1.25 C-6.38878906 1.00765625 -7.21507812 0.7653125 -8.06640625 0.515625 C-8.70449219 0.34546875 -9.34257812 0.1753125 -10 0 C-10 -0.33 -10 -0.66 -10 -1 C-5.9472301 -2.15793426 -3.73695111 -1.96681638 0 0 Z " fill="#5C5E58" transform="translate(156,151)"/>
<path d="M0 0 C0.33 0 0.66 0 1 0 C1 6.6 1 13.2 1 20 C1.66 20 2.32 20 3 20 C3 21.65 3 23.3 3 25 C2.34 24.01 1.68 23.02 1 22 C0.01 24.475 0.01 24.475 -1 27 C-1.93423645 23.98968256 -2.04449911 23.13349732 -1 20 C-0.8535286 18.44733347 -0.75305926 16.89004338 -0.68359375 15.33203125 C-0.64169922 14.43935547 -0.59980469 13.54667969 -0.55664062 12.62695312 C-0.51732422 11.69818359 -0.47800781 10.76941406 -0.4375 9.8125 C-0.37272461 8.40194336 -0.37272461 8.40194336 -0.30664062 6.96289062 C-0.20061335 4.64207146 -0.09854971 2.32114675 0 0 Z " fill="#80847B" transform="translate(152,109)"/>
<path d="M0 0 C-1.9075307 4.60986586 -4.95155508 6.30103672 -9 9 C-8.6507442 5.85669777 -8.16074267 4.20508548 -6.1875 1.6875 C-4 0 -4 0 0 0 Z " fill="#525A45" transform="translate(86,149)"/>
<path d="M0 0 C0 3 0 3 -1.9375 5 C-2.618125 5.66 -3.29875 6.32 -4 7 C-4.33 7.99 -4.66 8.98 -5 10 C-5.99 10.33 -6.98 10.66 -8 11 C-8.33 10.34 -8.66 9.68 -9 9 C-6 6 -3 3 0 0 Z " fill="#61625F" transform="translate(109,107)"/>
<path d="M0 0 C0.33 0.66 0.66 1.32 1 2 C1.66 2 2.32 2 3 2 C2.6875 3.875 2.6875 3.875 2 6 C1.01 6.66 0.02 7.32 -1 8 C-2.19232613 10.05003955 -2.19232613 10.05003955 -3 12 C-4 10 -4 10 -3.22265625 7.6171875 C-2.83980469 6.71226563 -2.45695312 5.80734375 -2.0625 4.875 C-1.68222656 3.96492188 -1.30195312 3.05484375 -0.91015625 2.1171875 C-0.60980469 1.41851562 -0.30945313 0.71984375 0 0 Z " fill="#525D3F" transform="translate(82,79)"/>
<path d="M0 0 C-0.33 0.99 -0.66 1.98 -1 3 C-3.97 3 -6.94 3 -10 3 C-9 1 -9 1 -5.5625 -0.1875 C-2 -1 -2 -1 0 0 Z " fill="#4A4C46" transform="translate(101,116)"/>
<path d="M0 0 C3.63 0.66 7.26 1.32 11 2 C11 2.33 11 2.66 11 3 C9.14375 2.9690625 9.14375 2.9690625 7.25 2.9375 C4.83148285 2.924681 2.97598357 3.00632011 0.625 3.625 C-0.179375 3.810625 -0.179375 3.810625 -1 4 C-1.66 3.34 -2.32 2.68 -3 2 C-2.01 2 -1.02 2 0 2 C0 1.34 0 0.68 0 0 Z " fill="#767B6C" transform="translate(72,123)"/>
<path d="M0 0 C0 0.66 0 1.32 0 2 C2.31 2.33 4.62 2.66 7 3 C7 3.33 7 3.66 7 4 C5.56344146 4.08131463 4.1255517 4.13933559 2.6875 4.1875 C1.48673828 4.23970703 1.48673828 4.23970703 0.26171875 4.29296875 C-2.47851584 3.93801608 -3.29171079 3.10633718 -5 1 C-3 0 -3 0 0 0 Z " fill="#536339" transform="translate(78,125)"/>
<path d="M0 0 C0.6875 1.6875 0.6875 1.6875 1 4 C-0.4375 6.75 -0.4375 6.75 -2 9 C-2.97110486 5.97878489 -3.13617383 3.99536737 -2 1 C-1.34 0.67 -0.68 0.34 0 0 Z " fill="#555555" transform="translate(151,137)"/>
<path d="M0 0 C0.33 0.99 0.66 1.98 1 3 C-1.97 5.475 -1.97 5.475 -5 8 C-4.45773019 4.20411134 -2.79872437 2.52788007 0 0 Z " fill="#595959" transform="translate(112,118)"/>
</svg>
